<?xml version="1.0" encoding="utf-8"?>
<!-- Generator: Adobe Illustrator 18.0.0, SVG Export Plug-In . SVG Version: 6.00 Build 0)  -->
<!DOCTYPE svg PUBLIC "-//W3C//DTD SVG 1.1//EN" "http://www.w3.org/Graphics/SVG/1.1/DTD/svg11.dtd">
<svg version="1.1" id="Layer_1" xmlns="http://www.w3.org/2000/svg" xmlns:xlink="http://www.w3.org/1999/xlink" x="0px" y="0px"
	 viewBox="43.2 0 705.5 364.2" enable-background="new 43.2 0 705.5 364.2" xml:space="preserve">
<path fill="#FFFFFF" d="M728.5,40.5H63.5c-11.2,0-20.2-9-20.2-20.2S52.2,0,63.5,0h665.1c11.2,0,20.2,9,20.2,20.2
	S739.8,40.5,728.5,40.5z"/>
<path fill="#FFFFFF" d="M728.5,148.4H63.5c-11.2,0-20.2-9-20.2-20.2c0-11.2,9-20.2,20.2-20.2h665.1c11.2,0,20.2,9,20.2,20.2
	C748.8,139.4,739.8,148.4,728.5,148.4z"/>
<path fill="#FFFFFF" d="M728.5,256.3H63.5c-11.2,0-20.2-9-20.2-20.2s9-20.2,20.2-20.2h665.1c11.2,0,20.2,9,20.2,20.2
	S739.8,256.3,728.5,256.3z"/>
<path fill="#FFFFFF" d="M728.5,364.2H63.5c-11.2,0-20.2-9-20.2-20.2s9-20.2,20.2-20.2h665.1c11.2,0,20.2,9,20.2,20.2
	S739.8,364.2,728.5,364.2z"/>
</svg>
